HIERARCHY
ROOT hip
{
  OFFSET 0 0 0
  CHANNELS 6 Xposition Yposition Zposition Zrotation Yrotation Xrotation
  JOINT abdomen
  {
    OFFSET 0 20.6881 -0.73152
    CHANNELS 3 Zrotation Xrotation Yrotation
    JOINT chest
    {
      OFFSET 0 11.7043 -0.48768
      CHANNELS 3 Zrotation Xrotation Yrotation
      JOINT neck
      {
        OFFSET 0 22.1894 -2.19456
        CHANNELS 3 Zrotation Xrotation Yrotation
        JOINT head
        {
          OFFSET -0.24384 7.07133 1.2192
          CHANNELS 3 Zrotation Xrotation Yrotation
          JOINT leftEye
          {
            OFFSET 4.14528 8.04674 8.04672
            CHANNELS 3 Zrotation Xrotation Yrotation
            End Site
            {
              OFFSET 1 0 0
            }
          }
          JOINT rightEye
          {
            OFFSET -3.6576 8.04674 8.04672
            CHANNELS 3 Zrotation Xrotation Yrotation
            End Site
            {
              OFFSET 1 0 0
            }
          }
        }
      }
      JOINT rCollar
      {
        OFFSET -2.68224 19.2634 -4.8768
        CHANNELS 3 Zrotation Xrotation Yrotation
        JOINT rShldr
        {
          OFFSET -8.77824 -1.95073 1.46304
          CHANNELS 3 Zrotation Xrotation Yrotation
          JOINT rForeArm
          {
            OFFSET -28.1742 -1.7115 0.48768
            CHANNELS 3 Zrotation Xrotation Yrotation
            JOINT rHand
            {
              OFFSET -22.5879 0.773209 7.07136
              CHANNELS 3 Zrotation Xrotation Yrotation
              JOINT rThumb1
              {
                OFFSET -1.2192 -0.487915 3.41376
                CHANNELS 3 Zrotation Xrotation Yrotation
                JOINT rThumb2
                {
                  OFFSET -3.37035 -0.52449 3.41376
                  CHANNELS 3 Zrotation Xrotation Yrotation
                  End Site
                  {
                    OFFSET -1.78271 -1.18214 1.43049
                  }
                }
              }
              JOINT rIndex1
              {
                OFFSET -7.75947 0.938293 5.60832
                CHANNELS 3 Zrotation Xrotation Yrotation
                JOINT rIndex2
                {
                  OFFSET -2.54057 -0.884171 1.56538
                  CHANNELS 3 Zrotation Xrotation Yrotation
                  End Site
                  {
                    OFFSET -1.62519 -0.234802 1.16502
                  }
                }
              }
              JOINT rMid1
              {
                OFFSET -8.24714 1.18213 3.41376
                CHANNELS 3 Zrotation Xrotation Yrotation
                JOINT rMid2
                {
                  OFFSET -3.10165 -0.590103 1.0647
                  CHANNELS 3 Zrotation Xrotation Yrotation
                  End Site
                  {
                    OFFSET -2.48547 -0.328903 0.83742
                  }
                }
              }
              JOINT rRing1
              {
                OFFSET -8.82822 0.546677 1.51678
                CHANNELS 3 Zrotation Xrotation Yrotation
                JOINT rRing2
                {
                  OFFSET -2.60934 -0.819778 -0.0198488
                  CHANNELS 3 Zrotation Xrotation Yrotation
                  End Site
                  {
                    OFFSET -2.33842 -0.294052 0.168128
                  }
                }
              }
              JOINT rPinky1
              {
                OFFSET -8.27202 -0.0477905 -0.4584
                CHANNELS 3 Zrotation Xrotation Yrotation
                JOINT rPinky2
                {
                  OFFSET -1.82734 -0.647385 -0.700984
                  CHANNELS 3 Zrotation Xrotation Yrotation
                  End Site
                  {
                    OFFSET -1.69225 -0.51767 -0.607171
                  }
                }
              }
            }
          }
        }
      }
      JOINT lCollar
      {
        OFFSET 2.68224 19.2634 -4.8768
        CHANNELS 3 Zrotation Xrotation Yrotation
        JOINT lShldr
        {
          OFFSET 8.77824 -1.95073 1.46304
          CHANNELS 3 Zrotation Xrotation Yrotation
          JOINT lForeArm
          {
            OFFSET 28.1742 -1.7115 0.48768
            CHANNELS 3 Zrotation Xrotation Yrotation
            JOINT lHand
            {
              OFFSET 22.5879 0.773209 7.07136
              CHANNELS 3 Zrotation Xrotation Yrotation
              JOINT lThumb1
              {
                OFFSET 1.2192 -0.487915 3.41376
                CHANNELS 3 Zrotation Xrotation Yrotation
                JOINT lThumb2
                {
                  OFFSET 3.37035 -0.52449 3.41376
                  CHANNELS 3 Zrotation Xrotation Yrotation
                  End Site
                  {
                    OFFSET 1.78271 -1.18214 1.43049
                  }
                }
              }
              JOINT lIndex1
              {
                OFFSET 7.75947 0.938293 5.60832
                CHANNELS 3 Zrotation Xrotation Yrotation
                JOINT lIndex2
                {
                  OFFSET 2.54057 -0.884171 1.56538
                  CHANNELS 3 Zrotation Xrotation Yrotation
                  End Site
                  {
                    OFFSET 1.62519 -0.234802 1.16502
                  }
                }
              }
              JOINT lMid1
              {
                OFFSET 8.24714 1.18213 3.41376
                CHANNELS 3 Zrotation Xrotation Yrotation
                JOINT lMid2
                {
                  OFFSET 3.10165 -0.590103 1.0647
                  CHANNELS 3 Zrotation Xrotation Yrotation
                  End Site
                  {
                    OFFSET 2.48547 -0.328903 0.83742
                  }
                }
              }
              JOINT lRing1
              {
                OFFSET 8.82822 0.546677 1.51678
                CHANNELS 3 Zrotation Xrotation Yrotation
                JOINT lRing2
                {
                  OFFSET 2.60934 -0.819778 -0.0198488
                  CHANNELS 3 Zrotation Xrotation Yrotation
                  End Site
                  {
                    OFFSET 2.33842 -0.294052 0.168128
                  }
                }
              }
              JOINT lPinky1
              {
                OFFSET 8.27202 -0.0477905 -0.4584
                CHANNELS 3 Zrotation Xrotation Yrotation
                JOINT lPinky2
                {
                  OFFSET 1.82734 -0.647385 -0.700984
                  CHANNELS 3 Zrotation Xrotation Yrotation
                  End Site
                  {
                    OFFSET 1.69225 -0.51767 -0.607171
                  }
                }
              }
            }
          }
        }
      }
    }
  }
  JOINT rButtock
  {
    OFFSET -8.77824 4.35084 1.2192
    CHANNELS 3 Zrotation Xrotation Yrotation
    JOINT rThigh
    {
      OFFSET 0 -1.70687 -2.19456
      CHANNELS 3 Zrotation Xrotation Yrotation
      JOINT rShin
      {
        OFFSET 0 -36.8199 0.73152
        CHANNELS 3 Zrotation Xrotation Yrotation
        JOINT rFoot
        {
          OFFSET 0.73152 -45.1104 -5.12064
          CHANNELS 3 Zrotation Xrotation Yrotation
          End Site
          {
            OFFSET -1.1221 -3.69964 12.103
          }
        }
      }
    }
  }
  JOINT lButtock
  {
    OFFSET 8.77824 4.35084 1.2192
    CHANNELS 3 Zrotation Xrotation Yrotation
    JOINT lThigh
    {
      OFFSET 0 -1.70687 -2.19456
      CHANNELS 3 Zrotation Xrotation Yrotation
      JOINT lShin
      {
        OFFSET 0 -36.8199 0.73152
        CHANNELS 3 Zrotation Xrotation Yrotation
        JOINT lFoot
        {
          OFFSET -0.73152 -45.1104 -5.12064
          CHANNELS 3 Zrotation Xrotation Yrotation
          End Site
          {
            OFFSET 1.1221 -3.69964 12.103
          }
        }
      }
    }
  }
}
MOTION
Frames:	5
Frame Time:	0.00833333
-69.727 84.8839 -83.6093 0.0 0.0 0.0 -0.194078 -0.000752046 -0.00553945 -0.0535366 -0.00112971 -0.00927453 -6.7993e-15 7.95139e-16 -6.21204e-18 -2.03568e-14 9.54166e-15 -2.32951e-17 -0.0 0.0 0.0 -0.0 0.0 0.0 -3.33108e-15 -9.70628e-19 9.93923e-17 -7.00202e-14 -8.69683e-17 5.96354e-16 -1.22685e-12 3.69143e-13 1.27222e-14 -1.40647e-11 -3.639e-13 -4.13472e-14 -3.3175e-11 1.09051e-14 -5.08889e-14 -5.72889e-11 1.59028e-14 -1.02573e-13 -3.31664e-11 1.47101e-14 -6.67917e-14 7.73091 5.47488 0.417314 -3.31739e-11 1.15295e-14 -5.40694e-14 2.90554 0.965183 0.102902 -3.31667e-11 1.14301e-14 -5.88403e-14 10.2786 0.731801 0.0259123 -3.31766e-11 1.23246e-14 -5.40694e-14 2.22167 -0.733487 -0.20892 -3.42782e-15 -9.70628e-19 -9.93923e-17 -7.3545e-14 -8.07563e-17 -1.59028e-15 -1.22978e-12 -3.69342e-13 6.36111e-15 -1.4067e-11 3.60049e-13 -3.49861e-14 -3.31793e-11 -2.08585e-14 -6.99722e-14 -5.72961e-11 -3.81667e-14 -1.09729e-13 -3.31803e-11 -2.06736e-14 -6.04305e-14 -7.73091 5.47488 -0.417314 -3.31794e-11 -2.06736e-14 -6.99722e-14 -2.90554 0.965183 -0.102902 -3.31885e-11 -2.05742e-14 -6.52014e-14 -10.2786 0.731801 -0.0259123 -3.3176e-11 -2.14687e-14 -6.99722e-14 -2.22167 -0.733487 0.20892 -2.03217e-16 0.0 -3.88251e-19 0.355871 -2.82713 -0.0340699 -0.00665519 -0.431856 -0.0584484 -0.502562 3.25829 0.123802 2.03217e-16 0.0 3.88251e-19 -0.651344 -3.58304 0.0525566 0.00445989 0.937459 0.0381193 0.504952 2.64491 -0.11159
-64.5657 83.5836 -89.3746 -175.825 87.7226 -177.947 -0.239562 3.69604 0.5483 0.146138 -1.74035 0.165478 -3.71666 -0.185164 -2.5264 4.99278 3.30682 -4.10041 -0.0 0.0 0.0 -0.0 0.0 0.0 -1.77307e-15 2.18506e-14 3.19531e-16 21.5831 2.68792 -0.562316 -4.66081 -2.21353 7.17278 0.00611208 1.73596 0.24357 -2.80634e-11 -7.14123e-11 -6.68815e-11 -4.86256e-11 -1.23918e-10 -1.15659e-10 -2.80548e-11 -7.14107e-11 -6.68966e-11 7.73091 5.47488 0.417314 -2.80624e-11 -7.14135e-11 -6.68865e-11 2.90554 0.965183 0.102902 -2.80539e-11 -7.1413e-11 -6.68886e-11 10.2786 0.731801 0.0259123 -2.80652e-11 -7.14109e-11 -6.6885e-11 2.22167 -0.733487 -0.20892 -1.83469e-15 2.18512e-14 1.52583e-16 -21.501 5.01782 1.48429 5.55801 -2.86493 -8.28064 -0.000590759 0.545465 -0.0766481 -1.06628e-10 1.84717e-11 5.36313e-11 -1.84383e-10 3.24572e-11 9.31904e-11 -1.06634e-10 1.84759e-11 5.36456e-11 -7.73091 5.47488 -0.417314 -1.06628e-10 1.84717e-11 5.36312e-11 -2.90554 0.965183 -0.102902 -1.06637e-10 1.84717e-11 5.36323e-11 -10.2786 0.731801 -0.0259123 -1.06625e-10 1.84717e-11 5.36254e-11 -2.22167 -0.733487 0.20892 -2.03217e-16 0.0 -3.88251e-19 0.116201 -5.17618 0.497397 0.0180305 8.87776 0.10187 -0.755757 -1.47403 -2.29824 2.03217e-16 0.0 3.88251e-19 -0.169495 -7.72371 0.36121 0.0263073 11.5002 -0.0824739 -0.207279 -2.26847 -4.97827
-64.5255 83.469 -89.0771 -179.434 87.6479 -181.537 -0.373365 7.61025 1.14218 0.369692 -3.58501 0.350865 -7.66096 -0.383338 -5.19489 10.7862 6.74533 -8.47561 -0.0 0.0 0.0 -0.0 0.0 0.0 -9.35004e-17 4.56691e-14 5.62188e-16 44.4645 5.53521 -1.15333 -8.98967 -4.43739 14.7885 -0.00352838 3.57974 0.50303 -2.31687e-11 -1.49509e-10 -1.41871e-10 -4.03568e-11 -2.59437e-10 -2.45328e-10 -2.31598e-11 -1.4951e-10 -1.41886e-10 7.73091 5.47488 0.417314 -2.31677e-11 -1.49512e-10 -1.41878e-10 2.90554 0.965183 0.102902 -2.31576e-11 -1.49511e-10 -1.41878e-10 10.2786 0.731801 0.0259123 -2.31706e-11 -1.49508e-10 -1.41875e-10 2.22167 -0.733487 -0.20892 -1.17724e-16 4.56704e-14 4.31735e-16 -44.5131 10.3027 3.08929 10.5445 -5.69557 -17.1026 0.000375434 1.11255 -0.156357 -1.88626e-10 3.69487e-11 1.11985e-10 -3.26258e-10 6.49672e-11 1.94578e-10 -1.88636e-10 3.69573e-11 1.12004e-10 -7.73091 5.47488 -0.417314 -1.88625e-10 3.69484e-11 1.11984e-10 -2.90554 0.965183 -0.102902 -1.88634e-10 3.69484e-11 1.11981e-10 -10.2786 0.731801 -0.0259123 -1.88622e-10 3.69492e-11 1.11972e-10 -2.22167 -0.733487 0.20892 -2.03217e-16 0.0 -3.88251e-19 -0.0975316 -7.65889 1.08073 -0.015015 18.7121 0.283837 -1.46227 -6.44542 -4.90508 2.03217e-16 0.0 3.88251e-19 0.422486 -12.1119 0.680866 0.10106 22.6752 -0.224331 -1.862 -7.35598 -10.1711
-64.4701 83.3474 -88.7421 -179.788 87.5802 -181.949 -0.548366 11.0855 1.68399 0.577426 -5.21859 0.516896 -11.1988 -0.551176 -7.5795 16.4036 9.71604 -12.4623 -0.0 0.0 0.0 -0.0 0.0 0.0 1.34297e-15 6.55537e-14 7.59808e-16 64.9089 8.06064 -1.70191 -12.355 -6.2252 21.6361 -0.0260971 5.2075 0.733402 -1.78403e-11 -2.14259e-10 -2.00543e-10 -3.12989e-11 -3.71787e-10 -3.46772e-10 -1.78314e-11 -2.14261e-10 -2.00556e-10 7.73091 5.47488 0.417314 -1.78394e-11 -2.14264e-10 -2.00551e-10 2.90554 0.965183 0.102902 -1.78281e-11 -2.14262e-10 -2.00548e-10 10.2786 0.731801 0.0259123 -1.78425e-11 -2.14257e-10 -2.00547e-10 2.22167 -0.733487 -0.20892 1.35157e-15 6.55555e-14 6.56533e-16 -65.3056 15.0123 4.59288 14.2567 -7.87818 -25.0633 0.00260745 1.63638 -0.230028 -2.53525e-10 5.5457e-11 1.61034e-10 -4.38557e-10 9.7448e-11 2.79791e-10 -2.5354e-10 5.54692e-11 1.61058e-10 -7.73091 5.47488 -0.417314 -2.53525e-10 5.54565e-11 1.61033e-10 -2.90554 0.965183 -0.102902 -2.53533e-10 5.54564e-11 1.61027e-10 -10.2786 0.731801 -0.0259123 -2.53522e-10 5.5458e-11 1.61016e-10 -2.22167 -0.733487 0.20892 -2.03217e-16 0.0 -3.88251e-19 -0.23062 -9.87119 1.57752 -0.10432 27.4962 0.472179 -2.47527 -10.8564 -7.27044 2.03217e-16 0.0 3.88251e-19 0.933045 -16.0031 1.00796 0.223432 32.6251 -0.378387 -4.14826 -11.7185 -15.0203
-64.3592 83.2321 -88.4037 -177.724 87.6183 -179.978 -0.670207 13.4671 2.06858 0.722811 -6.32466 0.632679 -13.6846 -0.647463 -9.2541 20.5765 11.7107 -15.3247 -0.0 0.0 0.0 -0.0 0.0 0.0 2.1717e-15 7.56034e-14 8.44835e-16 79.1507 9.7842 -2.13045 -14.4439 -7.31815 26.4513 -0.0488581 6.29558 0.888399 -1.14277e-11 -2.45641e-10 -2.18418e-10 -2.02685e-11 -4.2621e-10 -3.77654e-10 -1.14194e-11 -2.45645e-10 -2.18431e-10 7.73091 5.47488 0.417314 -1.14269e-11 -2.45646e-10 -2.18428e-10 2.90554 0.965183 0.102902 -1.14158e-11 -2.45644e-10 -2.18423e-10 10.2786 0.731801 0.0259123 -1.14303e-11 -2.45639e-10 -2.18421e-10 2.22167 -0.733487 -0.20892 2.20169e-15 7.56053e-14 7.45443e-16 -79.9792 18.3221 5.71146 16.4644 -9.12589 -30.6592 0.00516761 2.05212 -0.288532 -2.75681e-10 7.40433e-11 1.86823e-10 -4.76913e-10 1.29856e-10 3.24568e-10 -2.75698e-10 7.40572e-11 1.86848e-10 -7.73091 5.47488 -0.417314 -2.7568e-10 7.4043e-11 1.86823e-10 -2.90554 0.965183 -0.102902 -2.75688e-10 7.40429e-11 1.86815e-10 -10.2786 0.731801 -0.0259123 -2.75677e-10 7.40449e-11 1.86804e-10 -2.22167 -0.733487 0.20892 -2.03217e-16 0.0 -3.88251e-19 -0.262709 -11.4107 1.84204 -0.208799 33.6557 0.628803 -3.38444 -13.9516 -8.89235 2.03217e-16 0.0 3.88251e-19 1.1509 -18.6532 1.33049 0.34969 39.5126 -0.510929 -6.2613 -14.6274 -18.6947
